<?xml version="1.0" encoding="UTF-8" standalone="no"?>
<!-- Created with Inkscape (http://www.inkscape.org/) -->

<svg
   width="210mm"
   height="297mm"
   viewBox="0 0 210 297"
   version="1.1"
   id="svg5"
   xml:space="preserve"
   xmlns="http://www.w3.org/2000/svg"
   xmlns:svg="http://www.w3.org/2000/svg"><defs
     id="defs2" /><g
     id="layer1" /><path
     d="m 110.16792,66.127663 c -0.0614,0.03572 -0.3183,0.404283 -0.5715,0.819414 -0.635,1.042458 -0.64188,1.042988 -1.4949,0.145521 -0.5551,-0.5842 -0.68924,-0.691092 -0.86783,-0.689769 -0.11642,5.29e-4 -0.26326,0.04022 -0.32676,0.08784 -0.0635,0.04762 -0.24236,0.426508 -0.39794,0.842169 -0.35613,0.9525 -0.37306,0.982927 -0.57044,1.021291 -0.12171,0.02275 -0.35533,-0.107685 -0.91625,-0.510381 -0.41407,-0.297656 -0.82021,-0.541073 -0.90249,-0.541073 -0.34158,0 -0.43789,0.186796 -0.60061,1.164167 -0.20637,1.242748 -0.19949,1.238514 -1.31974,0.729721 -0.45244,-0.205317 -0.88106,-0.373063 -0.95329,-0.373063 -0.0725,0 -0.20955,0.07752 -0.30427,0.172509 -0.17251,0.172508 -0.17278,0.173302 -0.12568,1.12342 l 0.0471,0.951177 -0.17991,0.09631 c -0.15928,0.0852 -0.26908,0.07488 -0.97473,-0.09207 -0.92075,-0.217487 -1.11548,-0.211666 -1.30175,0.03969 l -0.13652,0.183357 0.18309,0.784225 c 0.10054,0.431271 0.19711,0.846666 0.21537,0.922602 0.0177,0.07594 -0.0132,0.197379 -0.0688,0.269875 -0.0921,0.118533 -0.18971,0.129646 -1.04246,0.116416 -1.44251,-0.02275 -1.52426,0.101071 -0.92869,1.402292 0.18997,0.41275 0.34528,0.788459 0.34528,0.833438 0,0.237596 -0.1897,0.32385 -1.00383,0.456935 -0.45561,0.07408 -0.85142,0.134937 -0.88,0.134937 -0.0283,0 -0.11377,0.06218 -0.18971,0.138113 -0.24791,0.24765 -0.17753,0.480483 0.38444,1.273704 0.70009,0.988219 0.69903,0.992187 -0.45773,1.434306 -1.31524,0.503238 -1.34196,0.627063 -0.34051,1.576917 0.93265,0.884767 0.93398,0.871802 -0.12198,1.535642 -0.8001,0.502179 -0.81227,0.51435 -0.83264,0.78687 -0.0246,0.331523 -0.0188,0.337344 0.9361,0.920751 0.94456,0.576791 0.94456,0.594254 0.0177,1.471083 -0.99695,0.942975 -0.96626,1.080558 0.35005,1.577181 1.15014,0.433917 1.15173,0.439209 0.45032,1.427163 -0.39741,0.560123 -0.52414,0.79375 -0.52414,0.966523 0,0.323585 0.16854,0.406135 1.17475,0.575204 0.84825,0.142875 1.03716,0.226748 1.03716,0.460639 0,0.04816 -0.15557,0.426509 -0.34581,0.840582 -0.5916,1.288521 -0.52414,1.395677 0.87577,1.395677 1.3044,0 1.26974,-0.03969 0.98875,1.136121 -0.21166,0.886354 -0.2151,1.056216 -0.0233,1.24751 0.14658,0.147108 0.42333,0.130704 1.28852,-0.07646 0.66119,-0.157692 0.77708,-0.16854 0.93027,-0.08678 l 0.17463,0.09366 -0.0468,0.950912 c -0.0471,0.950648 -0.0468,0.951177 0.12568,1.12395 0.0947,0.09525 0.23389,0.172509 0.30824,0.172509 0.0746,0 0.5035,-0.166688 0.95355,-0.371475 1.11655,-0.506942 1.10967,-0.511175 1.31578,0.727604 0.16324,0.981869 0.25849,1.164167 0.60695,1.164167 0.0865,0 0.48419,-0.232834 0.88371,-0.518055 0.7022,-0.500856 0.88424,-0.579437 1.0713,-0.460375 0.0482,0.03043 0.23548,0.441854 0.41592,0.914136 0.26538,0.694531 0.36248,0.875771 0.51038,0.94615 0.28099,0.134937 0.45509,0.02646 1.11602,-0.693209 0.79798,-0.86942 0.83079,-0.865187 1.48219,0.1905 0.71967,1.165755 0.90593,1.163105 1.64359,-0.02355 0.63553,-1.022351 0.62812,-1.021821 1.48723,-0.124355 0.5707,0.595313 0.69215,0.690563 0.8845,0.690563 0.12276,0 0.26961,-0.0463 0.32544,-0.102658 0.0566,-0.05636 0.24341,-0.472546 0.41486,-0.924984 0.17172,-0.452437 0.34952,-0.846667 0.39555,-0.875771 0.18177,-0.115358 0.36989,-0.0344 1.07104,0.46355 0.41275,0.293159 0.80116,0.518584 0.8935,0.518584 0.3429,0 0.46672,-0.243417 0.60907,-1.199886 0.1217,-0.815446 0.14658,-0.893762 0.30691,-0.974989 0.15769,-0.07991 0.25242,-0.05292 0.99219,0.283104 0.45006,0.203729 0.87921,0.370946 0.95356,0.370946 0.0746,0 0.2159,-0.07991 0.31327,-0.1778 l 0.1778,-0.177271 -0.0487,-0.912284 c -0.0468,-0.870479 -0.0423,-0.917575 0.0963,-1.043252 0.14288,-0.129116 0.15769,-0.128587 0.95647,0.05397 0.96732,0.220927 1.14776,0.226748 1.32953,0.04498 0.17754,-0.17727 0.17568,-0.216429 -0.0672,-1.240895 -0.27252,-1.14988 -0.30904,-1.108605 1.00012,-1.108605 0.89271,0 0.99219,-0.01296 1.10596,-0.138377 0.18997,-0.209814 0.14473,-0.450321 -0.23707,-1.264443 -0.19288,-0.410105 -0.34925,-0.783167 -0.34792,-0.829469 0.006,-0.241829 0.19658,-0.324644 1.07553,-0.467519 0.53789,-0.08705 0.94006,-0.187854 1.01309,-0.254 0.24421,-0.220398 0.15451,-0.507471 -0.40296,-1.289315 -0.69903,-0.979752 -0.69586,-0.989012 0.42306,-1.401498 1.33985,-0.493712 1.37822,-0.658283 0.37545,-1.611312 -0.92869,-0.882386 -0.92922,-0.877623 0.0881,-1.50204 1.22979,-0.754856 1.23164,-0.924983 0.0217,-1.676135 -1.04061,-0.645584 -1.03981,-0.636588 -0.10716,-1.522148 1.00013,-0.950648 0.97314,-1.075002 -0.34263,-1.57824 -1.16099,-0.444235 -1.1647,-0.455083 -0.45905,-1.423458 0.42016,-0.576792 0.5244,-0.768086 0.5244,-0.965729 0,-0.345546 -0.15504,-0.422805 -1.17369,-0.587375 -0.8509,-0.137583 -1.03823,-0.220927 -1.03823,-0.463021 0,-0.04604 0.15558,-0.416454 0.34581,-0.823648 0.37201,-0.797189 0.4244,-1.116541 0.21379,-1.307041 -0.11324,-0.102394 -0.26459,-0.117211 -1.07606,-0.103717 -0.84879,0.01429 -0.95726,0.0021 -1.075,-0.116152 -0.12859,-0.129117 -0.127,-0.147373 0.0735,-0.985573 0.24633,-1.026583 0.24739,-1.051719 0.045,-1.241954 -0.20558,-0.193146 -0.33391,-0.189971 -1.27688,0.03201 -0.68712,0.161925 -0.80089,0.172773 -0.957,0.08917 l -0.17727,-0.09525 0.0489,-0.947738 0.0492,-0.947208 -0.17727,-0.177271 c -0.0976,-0.0979 -0.23574,-0.177271 -0.30771,-0.177271 -0.0714,0 -0.49847,0.169333 -0.948,0.375973 -0.75089,0.345546 -0.83159,0.368565 -0.99404,0.283633 -0.16193,-0.08467 -0.18891,-0.168539 -0.32729,-1.013089 -0.15954,-0.977107 -0.2585,-1.167342 -0.60537,-1.167342 -0.0823,0 -0.49027,0.24474 -0.90646,0.543719 -0.68368,0.491066 -0.77523,0.537633 -0.94562,0.478102 -0.14102,-0.04921 -0.22304,-0.156104 -0.32306,-0.423069 -0.0741,-0.196321 -0.21616,-0.574675 -0.31591,-0.840581 -0.20161,-0.536575 -0.31406,-0.656696 -0.61595,-0.656696 -0.16854,0 -0.32094,0.121179 -0.86783,0.688975 -0.8599,0.892969 -0.86281,0.892704 -1.4949,-0.144198 -0.25268,-0.414337 -0.51673,-0.784225 -0.58684,-0.821796 -0.15796,-0.08467 -0.34396,-0.08467 -0.48948,5.29e-4 m 0.78316,3.121555 c 0.74877,0.532871 0.35084,1.785937 -0.56726,1.785937 -0.89112,0 -1.33985,-1.073414 -0.7038,-1.68275 0.35931,-0.343958 0.87419,-0.386027 1.27133,-0.103187 m -0.94139,3.309144 c 0.4908,0.186531 0.69215,0.07461 1.81292,-1.005417 l 0.84191,-0.812271 0.35639,0.04762 c 1.11787,0.148167 3.3409,1.124479 4.6183,2.028296 1.1737,0.830792 2.73368,2.522537 3.39858,3.685646 l 0.14208,0.249237 -0.62971,1.419225 c -0.3466,0.780521 -0.63024,1.500981 -0.63024,1.601523 0,0.232304 0.1524,0.59981 0.29898,0.721254 0.0619,0.05159 0.65008,0.334698 1.30678,0.629179 l 1.19327,0.535782 0.0471,0.303741 c 0.0608,0.395552 0.0688,1.367102 0.0137,1.643063 l -0.0431,0.2159 h -0.6813 c -0.79032,0 -0.7292,-0.07064 -0.77206,0.898525 -0.0312,0.702733 -0.20108,1.091142 -0.58737,1.34276 -0.62892,0.410369 -1.66794,0.336021 -2.10873,-0.150812 -0.0675,-0.07514 -0.19897,-0.451115 -0.29237,-0.836083 -0.27252,-1.125538 -0.63844,-1.756834 -1.37398,-2.37199 -0.2323,-0.19394 -0.42201,-0.375179 -0.42201,-0.402696 0,-0.02699 0.25532,-0.242094 0.56753,-0.477044 1.13718,-0.85725 1.79123,-1.855258 1.86267,-2.843477 0.13732,-1.885421 -1.36472,-3.642518 -3.59886,-4.212166 -0.5297,-0.134938 -0.75592,-0.139171 -7.30885,-0.139171 -3.71925,0 -6.76275,-0.02434 -6.76275,-0.05398 0,-0.06959 0.82682,-0.871802 1.31365,-1.274234 1.33721,-1.105429 3.07393,-1.975114 4.87283,-2.439458 l 0.62177,-0.161396 0.88371,0.896144 c 0.48657,0.492919 0.96309,0.926042 1.05913,0.96229 m -11.12917,5.766064 c 0.4072,0.2667 0.57415,0.936625 0.33338,1.339321 -0.37174,0.623358 -1.31392,0.649552 -1.68619,0.0471 -0.54134,-0.875507 0.50138,-1.944423 1.35281,-1.386417 m 23.9903,0.0344 c 1.06521,0.649287 0.23971,2.247106 -0.90064,1.742546 -0.76121,-0.336815 -0.78581,-1.377421 -0.041,-1.756834 0.31062,-0.15875 0.66754,-0.153193 0.94192,0.01402 m -20.85182,3.976952 v 3.974042 H 98.50574 L 98.36657,85.70498 C 98.09246,84.514355 97.9771,83.282455 98.04616,82.273599 l 0.0481,-0.708819 1.20782,-0.541602 c 0.75777,-0.33946 1.24513,-0.598487 1.30784,-0.694531 0.27464,-0.4191 0.24871,-0.718344 -0.13706,-1.569773 l -0.17991,-0.397404 h 1.72587 v 3.974041 m 10.11476,-3.801533 c 0.75221,0.195792 1.14961,0.59399 1.15067,1.15226 5.3e-4,0.410105 -0.2024,0.66675 -0.70643,0.894292 -0.35666,0.161396 -0.41328,0.165365 -2.66251,0.187325 l -2.29817,0.02223 v -2.360083 h 2.05899 c 1.60814,0 2.1463,0.02275 2.45745,0.103981 m -0.77629,5.702829 c 0.37307,0.103717 0.81386,0.427567 1.03982,0.764117 0.23759,0.353748 0.3765,0.813858 0.70564,2.337858 0.27781,1.288521 0.45693,1.709209 0.95779,2.257425 0.62045,0.678921 0.47625,0.652463 3.57558,0.652463 1.48431,0 2.69822,0.02381 2.69822,0.05292 0,0.05212 -1.02208,1.260475 -1.06627,1.260475 -0.0127,0 -0.54663,-0.111654 -1.18639,-0.248444 -1.80684,-0.385763 -1.87193,-0.340519 -2.28653,1.595967 l -0.2667,1.244071 -0.24077,0.118533 c -0.40164,0.198437 -1.70736,0.606425 -2.3839,0.746125 -1.11866,0.230187 -2.33574,0.307446 -3.40545,0.217223 -1.82377,-0.154781 -4.23862,-0.862277 -4.33308,-1.27 -0.0198,-0.08652 -0.14155,-0.646377 -0.26935,-1.2446 -0.12832,-0.597959 -0.28416,-1.165225 -0.3466,-1.260475 -0.29898,-0.456142 -0.6133,-0.484188 -1.99681,-0.178329 -0.52388,0.116416 -0.98108,0.210608 -1.016,0.210608 -0.0656,0 -1.03796,-1.124215 -1.03796,-1.199886 0,-0.02381 2.30928,-0.05133 5.13186,-0.06085 l 5.13159,-0.01746 0.0185,-1.822979 c 0.0132,-1.287198 -0.005,-1.85129 -0.0608,-1.91823 -0.0619,-0.07514 -0.39291,-0.09472 -1.59041,-0.09472 h -1.5121 v -2.211916 l 1.74546,2.64e-4 c 0.95938,5.3e-4 1.85737,0.03175 1.99469,0.06985 m -7.90733,8.290455 c 0.81597,0.497416 0.42465,1.800225 -0.54055,1.799166 -0.98954,0 -1.35652,-1.291166 -0.51329,-1.806045 0.27914,-0.170128 0.76941,-0.166688 1.05384,0.0069 m 14.94366,0.0545 c 0.40005,0.293158 0.53314,0.903023 0.28549,1.309687 -0.65088,1.06733 -2.27859,0.218811 -1.73488,-0.90461 0.26723,-0.551656 0.97764,-0.750623 1.44939,-0.404813"
     id="path208"
     style="stroke-width:0.264583;fill:#4d4d4d" /></svg>
